<?xml version="1.0" encoding="UTF-8" standalone="no"?>
<!DOCTYPE svg PUBLIC "-//W3C//DTD SVG 1.1//EN" "http://www.w3.org/Graphics/SVG/1.1/DTD/svg11.dtd">
<!-- Created with Vectornator (http://vectornator.io/) -->
<svg height="100%" stroke-miterlimit="10" style="fill-rule:nonzero;clip-rule:evenodd;stroke-linecap:round;stroke-linejoin:round;" version="1.1" viewBox="0 0 1000 700" width="100%" xml:space="preserve" xmlns="http://www.w3.org/2000/svg" xmlns:xlink="http://www.w3.org/1999/xlink">
<defs>
<filter color-interpolation-filters="sRGB" filterUnits="userSpaceOnUse" height="206.174" id="Filter" width="476.194" x="267.776" y="154.07">
<feDropShadow dx="-8.11508e-06" dy="2.24174" flood-color="#000000" flood-opacity="0.333" in="SourceGraphic" result="Shadow" stdDeviation="2.63345"/>
</filter>
<filter color-interpolation-filters="sRGB" filterUnits="userSpaceOnUse" height="119.377" id="Filter_2" width="628.673" x="191.536" y="47.9081">
<feDropShadow dx="-8.11508e-06" dy="2.24174" flood-color="#000000" flood-opacity="0.333" in="SourceGraphic" result="Shadow" stdDeviation="2.63345"/>
</filter>
</defs>
<g id="Untitled">
<g opacity="1">
<g opacity="1">
<path d="M875.456 317.691L686.249 144.125L659.634 173.137L817.306 317.691L195.825 317.691L353.497 173.011L326.882 143.999L137.676 317.691L137.549 317.691L137.549 432.098C137.549 483.814 187.374 525.944 248.551 525.944L365.228 525.944C426.405 525.944 476.229 483.814 476.229 432.098L476.229 356.919L536.776 356.919L536.776 432.098C536.776 483.814 586.6 525.944 647.777 525.944L764.454 525.944C825.631 525.944 875.456 483.814 875.456 432.098L875.456 317.691Z" fill="#1da1f2" fill-rule="nonzero" opacity="1" stroke="none"/>
<path d="M780.679 381.522C780.787 383.084 780.787 384.645 780.787 386.221C780.787 434.24 744.231 489.62 677.388 489.62L677.388 489.591C657.642 489.62 638.307 483.964 621.684 473.3C624.555 473.645 627.441 473.818 630.334 473.825C646.697 473.839 662.593 468.349 675.467 458.239C659.916 457.944 646.28 447.804 641.516 433.002C646.963 434.053 652.576 433.837 657.923 432.376C640.969 428.951 628.772 414.055 628.772 396.756C628.772 396.598 628.772 396.447 628.772 396.296C633.824 399.109 639.48 400.671 645.265 400.844C629.297 390.172 624.375 368.929 634.018 352.321C652.468 375.024 679.691 388.826 708.914 390.287C705.985 377.665 709.986 364.439 719.427 355.566C734.063 341.808 757.083 342.513 770.842 357.142C778.981 355.538 786.781 352.551 793.92 348.32C791.207 356.732 785.529 363.878 777.944 368.419C785.148 367.569 792.185 365.641 798.813 362.698C793.934 370.009 787.789 376.377 780.679 381.522Z" fill="#ffffff" fill-rule="nonzero" opacity="1" stroke="none"/>
</g>
<g opacity="1">
<g filter="url(#Filter)">
<g opacity="1">
<clipPath id="ClipPath">
<path d="M273.043 157.095L738.703 157.095L738.703 157.095L738.703 352.735L738.703 352.735L273.043 352.735L273.043 352.735L273.043 157.095L273.043 157.095Z"/>
</clipPath>
<g clip-path="url(#ClipPath)">
<path d="M420.674 168.705L370.068 168.705L370.068 208.316L377.444 208.316L377.444 177.584C377.444 176.764 378.127 176.081 378.947 176.081L394.654 176.081C395.474 176.081 396.157 176.764 396.157 177.584L396.157 208.316L403.533 208.316L403.533 177.584C403.533 176.764 404.216 176.081 405.035 176.081L420.674 176.081C421.562 176.081 422.245 176.764 422.245 177.584L422.245 208.316L429.553 208.316L429.553 177.584C429.553 172.666 425.592 168.705 420.674 168.705Z" fill="#787476" fill-rule="nonzero" opacity="1" stroke="none"/>
</g>
</g>
<g opacity="1">
<clipPath id="ClipPath_2">
<path d="M273.043 157.095L738.703 157.095L738.703 157.095L738.703 352.735L738.703 352.735L273.043 352.735L273.043 352.735L273.043 157.095L273.043 157.095Z"/>
</clipPath>
<g clip-path="url(#ClipPath_2)">
<path d="M444.202 168.705C439.285 168.705 435.324 172.666 435.324 177.584L435.324 199.438C435.324 204.355 439.285 208.316 444.202 208.316L466.739 208.316C471.657 208.316 475.618 204.355 475.618 199.438L475.618 177.584C475.618 172.666 471.657 168.705 466.739 168.705L444.202 168.705ZM466.739 176.081C467.559 176.081 468.242 176.764 468.242 177.584L468.242 199.438C468.242 200.257 467.559 200.94 466.739 200.94L444.202 200.94C443.383 200.94 442.7 200.257 442.7 199.438L442.7 177.584C442.7 176.764 443.383 176.081 444.202 176.081L466.739 176.081Z" fill="#787476" fill-rule="nonzero" opacity="1" stroke="none"/>
</g>
</g>
<g opacity="1">
<clipPath id="ClipPath_3">
<path d="M273.043 157.095L738.703 157.095L738.703 157.095L738.703 352.735L738.703 352.735L273.043 352.735L273.043 352.735L273.043 157.095L273.043 157.095Z"/>
</clipPath>
<g clip-path="url(#ClipPath_3)">
<path d="M512.258 155.729L512.258 168.705L488.218 168.705C483.301 168.705 479.34 172.666 479.34 177.584L479.34 199.438C479.34 204.355 483.301 208.316 488.218 208.316L519.634 208.316L519.634 155.729L512.258 155.729ZM488.218 200.94C487.399 200.94 486.716 200.257 486.716 199.438L486.716 177.584C486.716 176.764 487.399 176.081 488.218 176.081L510.755 176.081C511.575 176.081 512.258 176.764 512.258 177.584L512.258 199.438C512.258 200.257 511.575 200.94 510.755 200.94L488.218 200.94Z" fill="#787476" fill-rule="nonzero" opacity="1" stroke="none"/>
</g>
</g>
<g opacity="1">
<clipPath id="ClipPath_4">
<path d="M273.043 157.095L738.703 157.095L738.703 157.095L738.703 352.735L738.703 352.735L273.043 352.735L273.043 352.735L273.043 157.095L273.043 157.095Z"/>
</clipPath>
<g clip-path="url(#ClipPath_4)">
<path d="M555.864 168.705L533.327 168.705C528.41 168.705 524.449 172.666 524.449 177.584L524.449 199.438C524.449 204.355 528.41 208.316 533.327 208.316L564.742 208.316L564.742 200.94L533.327 200.94C532.507 200.94 531.824 200.257 531.824 199.438L531.824 192.199L564.742 192.199L564.742 177.584C564.742 172.666 560.781 168.705 555.864 168.705ZM531.824 184.823L531.824 177.584C531.824 176.764 532.507 176.081 533.327 176.081L555.864 176.081C556.684 176.081 557.367 176.764 557.367 177.584L557.367 184.823L531.824 184.823Z" fill="#787476" fill-rule="nonzero" opacity="1" stroke="none"/>
</g>
</g>
<g opacity="1">
<clipPath id="ClipPath_5">
<path d="M273.043 157.095L738.703 157.095L738.703 157.095L738.703 352.735L738.703 352.735L273.043 352.735L273.043 352.735L273.043 157.095L273.043 157.095Z"/>
</clipPath>
<g clip-path="url(#ClipPath_5)">
<path d="M577.958 168.705C573.04 168.705 569.079 172.666 569.079 177.584L569.079 199.438L569.079 199.438L569.079 208.316L576.455 208.316L576.455 177.584C576.455 176.764 577.138 176.081 577.958 176.081L600.085 176.081L600.085 168.705L577.958 168.705Z" fill="#787476" fill-rule="nonzero" opacity="1" stroke="none"/>
</g>
</g>
<g opacity="1">
<clipPath id="ClipPath_6">
<path d="M273.043 157.095L738.703 157.095L738.703 157.095L738.703 352.735L738.703 352.735L273.043 352.735L273.043 352.735L273.043 157.095L273.043 157.095Z"/>
</clipPath>
<g clip-path="url(#ClipPath_6)">
<path d="M634.267 168.705L602.851 168.705L602.851 208.316L610.227 208.316L610.227 177.584C610.227 176.764 610.91 176.081 611.729 176.081L634.267 176.081C635.086 176.081 635.769 176.764 635.769 177.584L635.769 208.316L643.145 208.316L643.145 177.584C643.145 172.666 639.184 168.705 634.267 168.705Z" fill="#787476" fill-rule="nonzero" opacity="1" stroke="none"/>
</g>
</g>
<g opacity="1">
<clipPath id="ClipPath_7">
<path d="M273.043 157.095L738.703 157.095L738.703 157.095L738.703 352.735L738.703 352.735L273.043 352.735L273.043 352.735L273.043 157.095L273.043 157.095Z"/>
</clipPath>
<g clip-path="url(#ClipPath_7)">
<path d="M358.577 256.567L352.772 256.567L356.46 245.708L349.084 245.708L345.396 256.567L330.713 256.567L334.401 245.708L327.025 245.708L323.337 256.567L310.634 256.567L310.634 263.942L321.015 263.942L317.054 276.099L308.517 276.099L308.517 283.475L314.732 283.475L311.317 294.675L318.693 294.675L322.108 283.475L336.791 283.475L333.376 294.675L340.752 294.675L344.167 283.475L356.46 283.475L356.46 276.099L346.489 276.099L350.45 263.942L358.577 263.942L358.577 256.567ZM324.43 276.099L328.391 263.942L343.074 263.942L339.113 276.099L324.43 276.099Z" fill="#787476" fill-rule="nonzero" opacity="1" stroke="none"/>
</g>
</g>
<g opacity="1">
<clipPath id="ClipPath_8">
<path d="M273.043 157.095L738.703 157.095L738.703 157.095L738.703 352.735L738.703 352.735L273.043 352.735L273.043 352.735L273.043 157.095L273.043 157.095Z"/>
</clipPath>
<g clip-path="url(#ClipPath_8)">
<path d="M386.681 262.44L386.681 255.064L370.426 255.064L370.426 242.088L363.051 242.088L363.051 263.942L363.051 263.942L363.051 285.797C363.051 290.714 367.012 294.675 371.929 294.675L386.681 294.675L386.681 287.299L371.929 287.299C371.109 287.299 370.426 286.616 370.426 285.797L370.426 262.44L386.681 262.44Z" fill="#787476" fill-rule="nonzero" opacity="1" stroke="none"/>
</g>
</g>
<g opacity="1">
<clipPath id="ClipPath_9">
<path d="M273.043 157.095L738.703 157.095L738.703 157.095L738.703 352.735L738.703 352.735L273.043 352.735L273.043 352.735L273.043 157.095L273.043 157.095Z"/>
</clipPath>
<g clip-path="url(#ClipPath_9)">
<path d="M449.546 255.064L439.507 281.357L427.418 255.064L419.018 255.064L407.613 281.357L396.891 255.064L389.037 255.064L404.608 294.675L410.55 294.675L410.481 294.607L410.618 294.675L423.184 265.24L436.502 294.675L442.512 294.675L457.4 255.064L449.546 255.064Z" fill="#787476" fill-rule="nonzero" opacity="1" stroke="none"/>
</g>
</g>
<g opacity="1">
<clipPath id="ClipPath_10">
<path d="M273.043 157.095L738.703 157.095L738.703 157.095L738.703 352.735L738.703 352.735L273.043 352.735L273.043 352.735L273.043 157.095L273.043 157.095Z"/>
</clipPath>
<g clip-path="url(#ClipPath_10)">
<path d="M461.259 294.675L468.634 294.675L468.634 255.064L461.259 255.064L461.259 294.675ZM461.259 242.088L461.259 249.464L468.634 249.464L468.634 242.088L461.259 242.088Z" fill="#787476" fill-rule="nonzero" opacity="1" stroke="none"/>
</g>
</g>
<g opacity="1">
<clipPath id="ClipPath_11">
<path d="M273.043 157.095L738.703 157.095L738.703 157.095L738.703 352.735L738.703 352.735L273.043 352.735L273.043 352.735L273.043 157.095L273.043 157.095Z"/>
</clipPath>
<g clip-path="url(#ClipPath_11)">
<path d="M497.831 262.44L497.831 255.064L481.576 255.064L481.576 242.088L474.201 242.088L474.201 263.942L474.201 263.942L474.201 285.797C474.201 290.714 478.162 294.675 483.079 294.675L497.831 294.675L497.831 287.299L483.079 287.299C482.259 287.299 481.576 286.616 481.576 285.797L481.576 262.44L497.831 262.44Z" fill="#787476" fill-rule="nonzero" opacity="1" stroke="none"/>
</g>
</g>
<g opacity="1">
<clipPath id="ClipPath_12">
<path d="M273.043 157.095L738.703 157.095L738.703 157.095L738.703 352.735L738.703 352.735L273.043 352.735L273.043 352.735L273.043 157.095L273.043 157.095Z"/>
</clipPath>
<g clip-path="url(#ClipPath_12)">
<path d="M524.5 262.44L524.5 255.064L508.246 255.064L508.246 242.088L500.87 242.088L500.87 263.942L500.87 263.942L500.87 285.797C500.87 290.714 504.831 294.675 509.748 294.675L524.5 294.675L524.5 287.299L509.748 287.299C508.929 287.299 508.246 286.616 508.246 285.797L508.246 262.44L524.5 262.44Z" fill="#787476" fill-rule="nonzero" opacity="1" stroke="none"/>
</g>
</g>
<g opacity="1">
<clipPath id="ClipPath_13">
<path d="M273.043 157.095L738.703 157.095L738.703 157.095L738.703 352.735L738.703 352.735L273.043 352.735L273.043 352.735L273.043 157.095L273.043 157.095Z"/>
</clipPath>
<g clip-path="url(#ClipPath_13)">
<path d="M558.818 255.064L536.281 255.064C531.364 255.064 527.403 259.025 527.403 263.942L527.403 285.797C527.403 290.714 531.364 294.675 536.281 294.675L567.696 294.675L567.696 287.299L536.281 287.299C535.461 287.299 534.778 286.616 534.778 285.797L534.778 278.557L567.696 278.557L567.696 263.942C567.696 259.025 563.735 255.064 558.818 255.064ZM534.778 271.182L534.778 263.942C534.778 263.123 535.461 262.44 536.281 262.44L558.818 262.44C559.638 262.44 560.32 263.123 560.32 263.942L560.32 271.182L534.778 271.182Z" fill="#787476" fill-rule="nonzero" opacity="1" stroke="none"/>
</g>
</g>
<g opacity="1">
<clipPath id="ClipPath_14">
<path d="M273.043 157.095L738.703 157.095L738.703 157.095L738.703 352.735L738.703 352.735L273.043 352.735L273.043 352.735L273.043 157.095L273.043 157.095Z"/>
</clipPath>
<g clip-path="url(#ClipPath_14)">
<path d="M580.911 255.064C575.994 255.064 572.033 259.025 572.033 263.942L572.033 285.797L572.033 285.797L572.033 294.675L579.409 294.675L579.409 263.942C579.409 263.123 580.092 262.44 580.911 262.44L603.039 262.44L603.039 255.064L580.911 255.064Z" fill="#787476" fill-rule="nonzero" opacity="1" stroke="none"/>
</g>
</g>
<g opacity="1">
<clipPath id="ClipPath_15">
<path d="M273.043 157.095L738.703 157.095L738.703 157.095L738.703 352.735L738.703 352.735L273.043 352.735L273.043 352.735L273.043 157.095L273.043 157.095Z"/>
</clipPath>
<g clip-path="url(#ClipPath_15)">
<path d="M637.425 255.064L606.01 255.064L606.01 262.44L637.425 262.44C638.245 262.44 638.928 263.123 638.928 263.942L638.928 271.182L606.01 271.182L606.01 285.797C606.01 290.714 609.971 294.675 614.888 294.675L646.304 294.675L646.304 263.942C646.304 259.025 642.343 255.064 637.425 255.064ZM638.928 287.299L614.888 287.299C614.069 287.299 613.386 286.616 613.386 285.797L613.386 278.557L638.928 278.557L638.928 287.299Z" fill="#787476" fill-rule="nonzero" opacity="1" stroke="none"/>
</g>
</g>
<g opacity="1">
<clipPath id="ClipPath_16">
<path d="M273.043 157.095L738.703 157.095L738.703 157.095L738.703 352.735L738.703 352.735L273.043 352.735L273.043 352.735L273.043 157.095L273.043 157.095Z"/>
</clipPath>
<g clip-path="url(#ClipPath_16)">
<path d="M683.627 255.064L652.211 255.064L652.211 310.383L659.587 310.383L659.587 294.675L683.627 294.675C688.544 294.675 692.505 290.714 692.505 285.797L692.505 263.942C692.505 259.025 688.544 255.064 683.627 255.064ZM685.129 285.797C685.129 286.616 684.446 287.299 683.627 287.299L661.09 287.299C660.27 287.299 659.587 286.616 659.587 285.797L659.587 263.942C659.587 263.123 660.27 262.44 661.09 262.44L683.627 262.44C684.446 262.44 685.129 263.123 685.129 263.942L685.129 285.797Z" fill="#787476" fill-rule="nonzero" opacity="1" stroke="none"/>
</g>
</g>
<g opacity="1">
<clipPath id="ClipPath_17">
<path d="M273.043 157.095L738.703 157.095L738.703 157.095L738.703 352.735L738.703 352.735L273.043 352.735L273.043 352.735L273.043 157.095L273.043 157.095Z"/>
</clipPath>
<g clip-path="url(#ClipPath_17)">
<path d="M696.091 294.675L703.467 294.675L703.467 255.064L696.091 255.064L696.091 294.675ZM696.091 242.088L696.091 249.464L703.467 249.464L703.467 242.088L696.091 242.088Z" fill="#787476" fill-rule="nonzero" opacity="1" stroke="none"/>
</g>
</g>
</g>
<g filter="url(#Filter_2)">
<g opacity="1">
<clipPath id="ClipPath_18">
<path d="M196.803 50.9332L814.942 50.9332L814.942 50.9332L814.942 159.776L814.942 159.776L196.803 159.776L196.803 159.776L196.803 50.9332L196.803 50.9332Z"/>
</clipPath>
<g clip-path="url(#ClipPath_18)">
<path d="M297.348 76.7157L253.648 76.7157L253.648 86.9757L297.348 86.9757C298.488 86.9757 299.438 87.9257 299.438 89.0657L299.438 99.1357L253.648 99.1357L253.648 119.466C253.648 126.306 259.158 131.816 265.998 131.816L309.698 131.816L309.698 89.0657C309.698 82.2257 304.188 76.7157 297.348 76.7157ZM299.438 121.556L265.998 121.556C264.858 121.556 263.908 120.606 263.908 119.466L263.908 109.396L299.438 109.396L299.438 121.556Z" fill="#787476" fill-rule="nonzero" opacity="1" stroke="none"/>
</g>
</g>
<g opacity="1">
<clipPath id="ClipPath_19">
<path d="M196.803 50.9332L814.942 50.9332L814.942 50.9332L814.942 159.776L814.942 159.776L196.803 159.776L196.803 159.776L196.803 50.9332L196.803 50.9332Z"/>
</clipPath>
<g clip-path="url(#ClipPath_19)">
<path d="M398.333 76.7157L384.368 113.291L367.553 76.7157L355.868 76.7157L340.003 113.291L325.088 76.7157L314.163 76.7157L335.823 131.816L344.088 131.816L343.993 131.721L344.183 131.816L361.663 90.8707L380.188 131.816L388.548 131.816L409.258 76.7157L398.333 76.7157Z" fill="#787476" fill-rule="nonzero" opacity="1" stroke="none"/>
</g>
</g>
<g opacity="1">
<clipPath id="ClipPath_20">
<path d="M196.803 50.9332L814.942 50.9332L814.942 50.9332L814.942 159.776L814.942 159.776L196.803 159.776L196.803 159.776L196.803 50.9332L196.803 50.9332Z"/>
</clipPath>
<g clip-path="url(#ClipPath_20)">
<path d="M456.283 76.7157L424.933 76.7157C418.093 76.7157 412.583 82.2257 412.583 89.0657L412.583 119.466C412.583 126.306 418.093 131.816 424.933 131.816L468.633 131.816L468.633 121.556L424.933 121.556C423.793 121.556 422.843 120.606 422.843 119.466L422.843 109.396L468.633 109.396L468.633 89.0657C468.633 82.2257 463.123 76.7157 456.283 76.7157ZM422.843 99.1357L422.843 89.0657C422.843 87.9257 423.793 86.9757 424.933 86.9757L456.283 86.9757C457.423 86.9757 458.373 87.9257 458.373 89.0657L458.373 99.1357L422.843 99.1357Z" fill="#787476" fill-rule="nonzero" opacity="1" stroke="none"/>
</g>
</g>
<g opacity="1">
<clipPath id="ClipPath_21">
<path d="M196.803 50.9332L814.942 50.9332L814.942 50.9332L814.942 159.776L814.942 159.776L196.803 159.776L196.803 159.776L196.803 50.9332L196.803 50.9332Z"/>
</clipPath>
<g clip-path="url(#ClipPath_21)">
<path d="M534.088 89.0657C534.088 82.2257 528.578 76.7157 521.738 76.7157L490.388 76.7157C483.548 76.7157 478.038 82.2257 478.038 89.0657L478.038 97.0457C478.038 103.886 483.548 109.396 490.388 109.396L521.738 109.396C522.878 109.396 523.828 110.346 523.828 111.486L523.828 119.466C523.828 120.606 522.878 121.556 521.738 121.556L490.388 121.556C489.248 121.556 488.298 120.606 488.298 119.466L488.298 117.376L478.038 117.376L478.038 119.466C478.038 126.306 483.548 131.816 490.388 131.816L521.738 131.816C528.578 131.816 534.088 126.306 534.088 119.466L534.088 111.486C534.088 104.646 528.578 99.1357 521.738 99.1357L490.388 99.1357C489.248 99.1357 488.298 98.1857 488.298 97.0457L488.298 89.0657C488.298 87.9257 489.248 86.9757 490.388 86.9757L521.738 86.9757C522.878 86.9757 523.828 87.9257 523.828 89.0657L523.828 91.1557L534.088 91.1557L534.088 89.0657Z" fill="#787476" fill-rule="nonzero" opacity="1" stroke="none"/>
</g>
</g>
<g opacity="1">
<clipPath id="ClipPath_22">
<path d="M196.803 50.9332L814.942 50.9332L814.942 50.9332L814.942 159.776L814.942 159.776L196.803 159.776L196.803 159.776L196.803 50.9332L196.803 50.9332Z"/>
</clipPath>
<g clip-path="url(#ClipPath_22)">
<path d="M555.843 76.7157C549.003 76.7157 543.493 82.2257 543.493 89.0657L543.493 119.466C543.493 126.306 549.003 131.816 555.843 131.816L587.193 131.816C594.033 131.816 599.543 126.306 599.543 119.466L599.543 89.0657C599.543 82.2257 594.033 76.7157 587.193 76.7157L555.843 76.7157ZM587.193 86.9757C588.333 86.9757 589.283 87.9257 589.283 89.0657L589.283 119.466C589.283 120.606 588.333 121.556 587.193 121.556L555.843 121.556C554.703 121.556 553.753 120.606 553.753 119.466L553.753 89.0657C553.753 87.9257 554.703 86.9757 555.843 86.9757L587.193 86.9757Z" fill="#787476" fill-rule="nonzero" opacity="1" stroke="none"/>
</g>
</g>
<g opacity="1">
<clipPath id="ClipPath_23">
<path d="M196.803 50.9332L814.942 50.9332L814.942 50.9332L814.942 159.776L814.942 159.776L196.803 159.776L196.803 159.776L196.803 50.9332L196.803 50.9332Z"/>
</clipPath>
<g clip-path="url(#ClipPath_23)">
<path d="M679.913 76.7157L609.518 76.7157L609.518 131.816L619.778 131.816L619.778 89.0657C619.778 87.9257 620.728 86.9757 621.868 86.9757L643.718 86.9757C644.858 86.9757 645.808 87.9257 645.808 89.0657L645.808 131.816L656.068 131.816L656.068 89.0657C656.068 87.9257 657.018 86.9757 658.158 86.9757L679.913 86.9757C681.148 86.9757 682.098 87.9257 682.098 89.0657L682.098 131.816L692.263 131.816L692.263 89.0657C692.263 82.2257 686.753 76.7157 679.913 76.7157Z" fill="#787476" fill-rule="nonzero" opacity="1" stroke="none"/>
</g>
</g>
<g opacity="1">
<clipPath id="ClipPath_24">
<path d="M196.803 50.9332L814.942 50.9332L814.942 50.9332L814.942 159.776L814.942 159.776L196.803 159.776L196.803 159.776L196.803 50.9332L196.803 50.9332Z"/>
</clipPath>
<g clip-path="url(#ClipPath_24)">
<path d="M745.843 76.7157L714.493 76.7157C707.653 76.7157 702.143 82.2257 702.143 89.0657L702.143 119.466C702.143 126.306 707.653 131.816 714.493 131.816L758.193 131.816L758.193 121.556L714.493 121.556C713.353 121.556 712.403 120.606 712.403 119.466L712.403 109.396L758.193 109.396L758.193 89.0657C758.193 82.2257 752.683 76.7157 745.843 76.7157ZM712.403 99.1357L712.403 89.0657C712.403 87.9257 713.353 86.9757 714.493 86.9757L745.843 86.9757C746.983 86.9757 747.933 87.9257 747.933 89.0657L747.933 99.1357L712.403 99.1357Z" fill="#787476" fill-rule="nonzero" opacity="1" stroke="none"/>
</g>
</g>
</g>
</g>
</g>
</g>
</svg>
